<svg width="106" height="24" viewBox="0 0 106 24" fill="none" xmlns="http://www.w3.org/2000/svg">
<g clip-path="url(#clip0_588_3)">
<path d="M4.61997 6.25324L3.17113 13.5964C2.93979 14.6338 2.80218 15.6899 2.75994 16.752C2.75994 17.8149 3.06187 18.561 3.66571 18.9903C3.06276 19.2402 2.41931 19.3782 1.76689 19.3976C0.911551 19.3976 0.48291 19.0097 0.48291 18.2164C0.48291 17.4677 0.935472 15.1403 1.8406 11.234L3.5474 3.91413L3.21574 3.02C2.76576 1.80196 2.20071 1.0714 1.52057 0.82831C2.69982 0.277477 3.44202 0.00206209 3.74717 0.00206209C3.98802 -0.00370086 4.22528 0.0611869 4.42967 0.188716C4.63406 0.316245 4.79664 0.500833 4.89733 0.719695C5.15593 1.19682 6.28217 3.79388 8.27602 8.51087C10.5078 13.8123 11.9786 16.463 12.6885 16.463C13.2141 16.463 13.7281 15.34 14.2401 13.0843C14.7475 10.8061 15.0012 8.47868 14.9966 6.14462C14.9966 4.23481 14.544 2.97669 13.6389 2.37025C14.3856 1.84464 15.0586 1.58086 15.6638 1.58086C16.5689 1.58086 17.0215 2.32177 17.0215 3.80358C17.0215 4.98024 16.8172 6.78467 16.4086 9.21687C16.0811 11.2837 15.6382 13.3305 15.0819 15.3478C14.2983 18.0476 13.4294 19.3976 12.4752 19.3976C11.6489 19.3976 10.7651 18.6696 9.82379 17.2136C8.88246 15.7577 7.62498 13.1794 6.05136 9.4787C5.53738 8.28394 5.18244 7.48485 5.00012 7.07948L4.61997 6.25324Z" fill="#404041"/>
<path d="M22.8382 13.3307L22.6093 13.7729C21.6447 15.5637 21.1624 16.9511 21.1624 17.9351C21.1717 18.2481 21.2889 18.5482 21.494 18.7847C21.3117 18.8442 20.8967 18.9929 20.2489 19.2308C19.9767 19.3314 19.6895 19.3852 19.3993 19.3898C18.864 19.3898 18.5944 19.1338 18.5944 18.614C18.5944 17.5524 19.259 15.9361 20.5883 13.7651L20.9432 13.1832H20.3614C19.1045 13.1832 18.1347 13.3772 17.452 13.7651C17.8115 12.4656 18.7813 11.8159 20.3614 11.8159L21.785 11.8508L22.0973 11.393C23.2933 9.59055 25.1262 7.1687 27.5959 4.12748C28.4299 3.09758 29.0505 2.45753 29.4656 2.20539C29.8807 1.95325 30.6759 1.72632 31.8609 1.51685C31.6474 2.78534 31.5359 4.06891 31.5273 5.35522C31.5355 8.56656 31.9005 11.7671 32.6154 14.8978C33.0111 16.6706 33.6182 17.813 34.4367 18.325C33.719 19.0323 33.1048 19.3866 32.5941 19.3879C31.3877 19.3879 30.4574 17.319 29.8031 13.1813C28.5343 13.3224 27.2587 13.3923 25.9822 13.3908L22.8382 13.3307ZM23.6663 11.973L25.9822 12.0312C27.1959 12.0493 28.4096 11.9949 29.6169 11.8682C29.308 9.66082 29.1357 7.43645 29.101 5.20781V4.34665C28.8424 4.66862 28.2773 5.36298 27.4058 6.42973C25.8141 8.37704 24.6503 10.0748 23.9146 11.523L23.6663 11.973Z" fill="#404041"/>
<path d="M40.3484 19.3974C40.5028 18.4232 40.5729 17.4375 40.5579 16.4512C40.5579 13.9014 40.0995 10.7063 39.1828 6.86597C38.7561 5.05573 38.385 3.82734 38.0694 3.18083C37.7407 2.52079 37.2325 1.96685 36.6031 1.58263C37.379 0.754446 38.0074 0.343262 38.5097 0.343262C39.4717 0.343262 40.3853 1.8949 41.2503 4.99818C42.3972 9.05702 42.9694 12.8456 42.9668 16.3639C47.7885 9.94791 50.2001 5.5516 50.2013 3.17501C50.1994 2.83351 50.1063 2.49873 49.9317 2.20523C50.5093 1.78981 51.2007 1.56227 51.912 1.55354C52.5211 1.55354 52.8275 1.84835 52.8275 2.4341C52.8275 3.4543 52.1687 5.11973 50.8511 7.43038C49.5335 9.74103 47.7123 12.4318 45.3874 15.5028C44.1706 17.101 43.3075 18.096 42.7981 18.4878C42.2899 18.8854 41.4714 19.186 40.3484 19.3974Z" fill="#404041"/>
<path d="M56.4506 13.3304L56.2217 13.7727C55.2558 15.5674 54.7729 16.9568 54.7729 17.9408C54.7816 18.2535 54.8981 18.5535 55.1026 18.7903C54.9229 18.8498 54.5097 18.9985 53.8632 19.2364C53.5904 19.3369 53.3025 19.3907 53.0118 19.3954C52.4726 19.3954 52.2049 19.1394 52.2049 18.6196C52.2049 17.558 52.8695 15.9417 54.1988 13.7707L54.5556 13.1889H53.9738C52.7195 13.1889 51.7498 13.3828 51.0645 13.7707C51.4252 12.4712 52.395 11.8215 53.9738 11.8215L55.3993 11.8564L55.7077 11.3987C56.9064 9.59617 58.7393 7.17431 61.2064 4.1331C62.0404 3.09867 62.663 2.45797 63.0742 2.211C63.4873 1.95886 64.2864 1.73193 65.4714 1.52246C65.2579 2.79096 65.1464 4.07452 65.1378 5.36083C65.146 8.57218 65.5109 11.7727 66.2259 14.9034C66.6255 16.6762 67.2326 17.8186 68.0472 18.3306C67.3295 19.0379 66.7153 19.3922 66.2046 19.3935C65.0008 19.3935 64.0698 17.3246 63.4116 13.1869C62.1388 13.3247 60.8593 13.3907 59.5791 13.3848L56.4506 13.3304ZM57.2768 11.9728L59.5927 12.0309C60.8064 12.0491 62.0201 11.9947 63.2274 11.868C62.9185 9.66062 62.7462 7.43625 62.7115 5.20761V4.34645C62.4606 4.66841 61.8956 5.36278 61.0163 6.42953C59.4259 8.37684 58.2621 10.0746 57.5251 11.5228L57.2768 11.9728Z" fill="#404041"/>
<path d="M75.2236 6.25323L73.7747 13.5964C73.5434 14.6338 73.4058 15.6899 73.3636 16.752C73.3636 17.8149 73.6655 18.561 74.2693 18.9903C73.6651 19.2405 73.0203 19.3785 72.3666 19.3976C71.5093 19.3976 71.0826 19.0097 71.0826 18.2164C71.0826 17.4677 71.5352 15.1403 72.4403 11.234L74.1433 3.91413L73.8116 3.02C73.3616 1.80196 72.8011 1.07075 72.1203 0.828307C73.2995 0.285233 74.0417 0.0130511 74.3469 0.011758C74.5879 0.00660851 74.8251 0.0717255 75.0297 0.199161C75.2343 0.326596 75.3974 0.510836 75.499 0.729391C75.7576 1.20652 76.8825 3.80358 78.8738 8.52057C81.1056 13.822 82.5764 16.4727 83.2863 16.4727C83.81 16.4727 84.3298 15.3497 84.8379 13.094C85.3475 10.8161 85.6025 8.48857 85.5982 6.15431C85.5982 4.2445 85.1457 2.98638 84.2406 2.37995C84.9892 1.85433 85.6603 1.59055 86.2635 1.59055C87.1686 1.59055 87.6212 2.33146 87.6212 3.81328C87.6212 4.98994 87.4162 6.79437 87.0064 9.22656C86.6766 11.2928 86.2344 13.3395 85.6816 15.3575C84.9058 18.0573 84.0395 19.4073 83.0826 19.4073C82.2564 19.4073 81.372 18.6793 80.4293 17.2233C79.4867 15.7674 78.2279 13.1858 76.653 9.4787C76.139 8.28394 75.788 7.48484 75.6057 7.07948L75.2236 6.25323Z" fill="#404041"/>
<path d="M93.4437 13.3307L93.2129 13.7729C92.2457 15.5637 91.7621 16.9511 91.7621 17.9351C91.7697 18.2488 91.8878 18.5497 92.0957 18.7847C91.9018 18.8448 91.4964 18.9941 90.8505 19.2308C90.577 19.3315 90.2885 19.3852 89.9971 19.3898C89.4618 19.3898 89.1922 19.1338 89.1922 18.614C89.1922 17.5524 89.8562 15.9361 91.1841 13.7651L91.541 13.1832H90.9591C89.7023 13.1832 88.7325 13.3772 88.0498 13.7651C88.4106 12.4656 89.3803 11.8159 90.9591 11.8159L92.3847 11.8508L92.695 11.393C93.8911 9.59055 95.7253 7.1687 98.1975 4.12748C99.0277 3.09306 99.6496 2.45236 100.063 2.20539C100.475 1.95325 101.274 1.72632 102.459 1.51685C102.247 2.78551 102.136 4.069 102.127 5.35522C102.134 8.56642 102.498 11.7669 103.211 14.8978C103.608 16.6706 104.216 17.813 105.034 18.325C104.315 19.0329 103.704 19.3879 103.194 19.3879C101.985 19.3879 101.053 17.319 100.399 13.1813C99.1282 13.3208 97.8506 13.3888 96.5722 13.385L93.4437 13.3307ZM94.2719 11.973L96.5858 12.0312C97.7989 12.0493 99.012 11.9949 100.219 11.8682C99.9133 9.65931 99.7449 7.43364 99.7143 5.20393V4.34665C99.4641 4.66862 98.8958 5.36298 98.0191 6.42973C96.4287 8.37704 95.2649 10.0748 94.5279 11.523L94.2719 11.973Z" fill="#404041"/>
<path d="M105.06 21.5911H0V24.0019H105.06V21.5911Z" fill="#EC1C24"/>
</g>
<defs>
<clipPath id="clip0_588_3">
<rect width="105.06" height="24" fill="white"/>
</clipPath>
</defs>
</svg>
